<svg width="24" height="24" viewBox="0 0 24 24" fill="none" xmlns="http://www.w3.org/2000/svg">
<path fill-rule="evenodd" clip-rule="evenodd" d="M11.9999 23.9998C18.6273 23.9998 23.9998 18.6273 23.9998 11.9999C23.9998 5.37254 18.6273 0 11.9999 0C5.37254 0 0 5.37254 0 11.9999C0 18.6273 5.37254 23.9998 11.9999 23.9998Z" fill="#EFF2F6"/>
<path fill-rule="evenodd" clip-rule="evenodd" d="M7.62474 12.6251H14.6059L12.181 15.0501C11.9372 15.2939 11.9372 15.6939 12.181 15.9376C12.4247 16.1814 12.8185 16.1814 13.0622 15.9376L16.5559 12.4439C16.7997 12.2002 16.7997 11.8064 16.5559 11.5627L13.0685 8.06268C12.8247 7.81893 12.431 7.81893 12.1872 8.06268C11.9435 8.30643 11.9435 8.70018 12.1872 8.94392L14.6059 11.3752H7.62474C7.281 11.3752 6.99975 11.6564 6.99975 12.0002C6.99975 12.3439 7.281 12.6251 7.62474 12.6251Z" fill="#18214D"/>
</svg>
