<svg width="762" height="534" viewBox="0 0 762 534" fill="none" xmlns="http://www.w3.org/2000/svg">
<path d="M26.3769 0.5H735.623C749.914 0.5 761.5 12.0827 761.5 26.3704V507.612C761.5 521.9 749.914 533.483 735.623 533.483H26.3769C12.0854 533.483 0.5 521.9 0.5 507.612V26.3704C0.5 12.0827 12.0854 0.5 26.3769 0.5ZM747.846 26.3704C747.846 19.6212 742.373 14.1502 735.623 14.1502H26.3769C19.6264 14.1502 14.1538 19.6212 14.1538 26.3704V507.612C14.1538 514.361 19.6264 519.833 26.3769 519.833H735.623C742.373 519.833 747.846 514.361 747.846 507.612V26.3704Z" fill="#060606" stroke="#979797"/>
</svg>
