<svg width="18" height="18" viewBox="0 0 18 18" fill="none" xmlns="http://www.w3.org/2000/svg">
<path fill-rule="evenodd" clip-rule="evenodd" d="M1.00001 9.99984H6.99991C7.5499 9.99984 7.99989 9.54984 7.99989 8.99985V0.999984C7.99989 0.449993 7.5499 0 6.99991 0H1.00001C0.450015 0 2.25296e-05 0.449993 2.25296e-05 0.999984V8.99985C2.25296e-05 9.54984 0.450015 9.99984 1.00001 9.99984ZM0.999984 17.9999H6.99989C7.54988 17.9999 7.99987 17.5499 7.99987 16.9999V13C7.99987 12.45 7.54988 12 6.99989 12H0.999984C0.449993 12 0 12.45 0 13V16.9999C0 17.5499 0.449993 17.9999 0.999984 17.9999ZM10.9999 18H16.9998C17.5498 18 17.9998 17.55 17.9998 17V9.00018C17.9998 8.45019 17.5498 8.00019 16.9998 8.00019H10.9999C10.4499 8.00019 9.99995 8.45019 9.99995 9.00018V17C9.99995 17.55 10.4499 18 10.9999 18ZM9.99995 1.00015V5.00008C9.99995 5.55007 10.4499 6.00006 10.9999 6.00006H16.9998C17.5498 6.00006 17.9998 5.55007 17.9998 5.00008V1.00015C17.9998 0.450154 17.5498 0.0001619 16.9998 0.0001619H10.9999C10.4499 0.0001619 9.99995 0.450154 9.99995 1.00015Z" fill="#18214D"/>
</svg>
