<svg width="23" height="23" viewBox="0 0 23 23" fill="none" xmlns="http://www.w3.org/2000/svg">
<path fill-rule="evenodd" clip-rule="evenodd" d="M19.6461 10.5418H18.2086V6.70846C18.2086 5.65429 17.3461 4.79179 16.2919 4.79179H12.4586V3.35428C12.4586 2.03177 11.3853 0.958436 10.0627 0.958436C8.74024 0.958436 7.6669 2.03177 7.6669 3.35428V4.79179H3.83355C2.77938 4.79179 1.92645 5.65429 1.92645 6.70846V10.3501H3.35438C4.7823 10.3501 5.94189 11.5097 5.94189 12.9377C5.94189 14.3656 4.7823 15.5252 3.35438 15.5252H1.91687V19.1669C1.91687 20.221 2.77938 21.0835 3.83355 21.0835H7.47523V19.646C7.47523 18.2181 8.63482 17.0585 10.0627 17.0585C11.4907 17.0585 12.6503 18.2181 12.6503 19.646V21.0835H16.2919C17.3461 21.0835 18.2086 20.221 18.2086 19.1669V15.3335H19.6461C20.9686 15.3335 22.042 14.2602 22.042 12.9377C22.042 11.6152 20.9686 10.5418 19.6461 10.5418Z" fill="#18214D"/>
</svg>
