<svg width="20" height="20" viewBox="0 0 20 20" fill="none" xmlns="http://www.w3.org/2000/svg">
<path fill-rule="evenodd" clip-rule="evenodd" d="M9.99979 8.89997C9.38979 8.89997 8.89979 9.38997 8.89979 9.99997C8.89979 10.61 9.38979 11.1 9.99979 11.1C10.6098 11.1 11.0998 10.61 11.0998 9.99997C11.0998 9.38997 10.6098 8.89997 9.99979 8.89997ZM10 0C4.48 0 0 4.48 0 10C0 15.52 4.48 20 10 20C15.52 20 20 15.52 20 10C20 4.48 15.52 0 10 0ZM12.1898 12.19L3.99982 16L7.80982 7.81L15.9998 4L12.1898 12.19Z" fill="#18214D"/>
</svg>
