<svg width="24" height="24" viewBox="0 0 24 24" fill="none" xmlns="http://www.w3.org/2000/svg">
<path fill-rule="evenodd" clip-rule="evenodd" d="M11.9999 23.9998C18.6273 23.9998 23.9998 18.6273 23.9998 11.9999C23.9998 5.37254 18.6273 0 11.9999 0C5.37254 0 0 5.37254 0 11.9999C0 18.6273 5.37254 23.9998 11.9999 23.9998Z" fill="#EF972C"/>
<path fill-rule="evenodd" clip-rule="evenodd" d="M7.62525 12.6251H14.6064L12.1815 15.0501C11.9377 15.2939 11.9377 15.6939 12.1815 15.9376C12.4252 16.1814 12.819 16.1814 13.0627 15.9376L16.5564 12.4439C16.8002 12.2002 16.8002 11.8064 16.5564 11.5627L13.069 8.06268C12.8252 7.81893 12.4315 7.81893 12.1877 8.06268C11.944 8.30643 11.944 8.70018 12.1877 8.94392L14.6064 11.3752H7.62525C7.2815 11.3752 7.00025 11.6564 7.00025 12.0002C7.00025 12.3439 7.2815 12.6251 7.62525 12.6251Z" fill="#18214D"/>
</svg>
