<svg width="23" height="23" viewBox="0 0 23 23" fill="none" xmlns="http://www.w3.org/2000/svg">
<path fill-rule="evenodd" clip-rule="evenodd" d="M18.2087 2.87482H4.79198C3.73781 2.87482 2.87531 3.73732 2.87531 4.79149V18.2082C2.87531 19.2624 3.73781 20.1249 4.79198 20.1249H18.2087C19.2629 20.1249 20.1254 19.2624 20.1254 18.2082V4.79149C20.1254 3.73732 19.2629 2.87482 18.2087 2.87482ZM7.66688 16.2916C7.13979 16.2916 6.70854 15.8604 6.70854 15.3333V10.5416C6.70854 10.0145 7.13979 9.58325 7.66688 9.58325C8.19396 9.58325 8.62521 10.0145 8.62521 10.5416V15.3333C8.62521 15.8604 8.19396 16.2916 7.66688 16.2916ZM11.5005 16.2915C10.9734 16.2915 10.5421 15.8603 10.5421 15.3332V7.66647C10.5421 7.13938 10.9734 6.70813 11.5005 6.70813C12.0276 6.70813 12.4588 7.13938 12.4588 7.66647V15.3332C12.4588 15.8603 12.0276 16.2915 11.5005 16.2915ZM15.3337 16.2917C14.8066 16.2917 14.3754 15.8605 14.3754 15.3334V13.4167C14.3754 12.8896 14.8066 12.4584 15.3337 12.4584C15.8608 12.4584 16.2921 12.8896 16.2921 13.4167V15.3334C16.2921 15.8605 15.8608 16.2917 15.3337 16.2917Z" fill="#18214D"/>
</svg>
