<svg width="1219" height="854" viewBox="0 0 1219 854" fill="none" xmlns="http://www.w3.org/2000/svg">
<path d="M42.1847 1.50005H1176.48C1198.95 1.50005 1217.17 19.7108 1217.17 42.1742V811.826C1217.17 834.289 1198.95 852.5 1176.48 852.5H42.1847C19.7148 852.5 1.50005 834.289 1.50005 811.826V42.1742C1.50005 19.7108 19.7148 1.50005 42.1847 1.50005ZM1196.73 42.1742C1196.73 30.9933 1187.67 21.9301 1176.48 21.9301H42.1847C31.0019 21.9301 21.9359 30.9933 21.9359 42.1742V811.826C21.9359 823.007 31.0019 832.07 42.1847 832.07H1176.48C1187.67 832.07 1196.73 823.007 1196.73 811.826V42.1742Z" fill="black" stroke="#535353" stroke-width="3"/>
</svg>
