<svg width="633" height="551" viewBox="0 0 633 551" fill="none" xmlns="http://www.w3.org/2000/svg">
<path d="M121.604 343.344C123.341 344.205 124.06 345.855 124.06 345.855L122.817 347.595C122.817 347.595 122.098 345.945 120.361 345.084L121.604 343.344Z" fill="url(#paint0_linear_4_1068)"/>
<path d="M124.958 316.491C126.531 316.06 127.699 316.796 127.699 316.796L127.549 318.751C127.549 318.751 126.381 318.034 124.809 318.446L124.958 316.491Z" fill="url(#paint1_linear_4_1068)"/>
<path d="M146.434 307.648C147.842 305.011 149.894 304.24 149.894 304.24L151.586 306.697C151.586 306.697 149.534 307.468 148.126 310.105L146.434 307.648Z" fill="url(#paint2_linear_4_1068)"/>
<path d="M162.398 311.343C165.319 310.41 167.565 311.684 167.565 311.684L167.4 315.361C167.4 315.361 165.154 314.105 162.234 315.02L162.398 311.343Z" fill="url(#paint3_linear_4_1068)"/>
<path d="M171.474 306.769C171.953 304.042 173.435 302.625 173.435 302.625L175.487 304.024C175.487 304.024 173.99 305.441 173.525 308.168L171.474 306.769Z" fill="url(#paint4_linear_4_1068)"/>
<path d="M200.497 298.123C202.384 297.89 203.672 298.93 203.672 298.93L203.267 301.19C203.267 301.19 201.979 300.15 200.092 300.383L200.497 298.123Z" fill="url(#paint5_linear_4_1068)"/>
<path d="M230.014 330.967C232.32 329.012 234.627 329.227 234.627 329.227L235.48 332.509C235.48 332.509 233.174 332.276 230.868 334.249L230.014 330.967Z" fill="url(#paint6_linear_4_1068)"/>
<path d="M249.483 353.299C251.46 351.505 253.497 351.613 253.497 351.613L254.335 354.465C254.335 354.465 252.298 354.34 250.322 356.151L249.483 353.299Z" fill="url(#paint7_linear_4_1068)"/>
<path d="M595.755 272.741L591.727 276.078L593.614 279.324L597.642 275.97L595.755 272.741Z" fill="url(#paint8_linear_4_1068)"/>
<path d="M591.952 276.472C593.689 273.746 595.98 273.118 595.98 273.118L597.642 275.97C597.642 275.97 595.351 276.598 593.614 279.324L591.952 276.472Z" fill="url(#paint9_linear_4_1068)"/>
<path d="M626.875 307.576C629.256 305.172 631.802 305.154 631.802 305.154L633 308.652C633 308.652 630.454 308.67 628.073 311.074L626.875 307.576Z" fill="url(#paint10_linear_4_1068)"/>
<path d="M611.3 334.393C612.378 332.76 613.786 332.402 613.786 332.402L614.775 334.159C614.775 334.159 613.367 334.5 612.289 336.15L611.3 334.393Z" fill="url(#paint11_linear_4_1068)"/>
<path d="M576.646 337.191C578.263 337.532 579.132 338.752 579.132 338.752L578.353 340.527C578.353 340.527 577.485 339.29 575.867 338.967L576.646 337.191Z" fill="url(#paint12_linear_4_1068)"/>
<path d="M585.811 355.756C588.357 353.657 590.888 353.944 590.888 353.944L591.786 357.55C591.786 357.55 589.256 357.263 586.71 359.362L585.811 355.756Z" fill="url(#paint13_linear_4_1068)"/>
<path d="M593.973 381.443C596.878 380.869 598.975 382.34 598.975 382.34L598.541 385.892C598.541 385.892 596.459 384.421 593.539 384.995L593.973 381.443Z" fill="url(#paint14_linear_4_1068)"/>
<path d="M562.718 396.223C563.467 394.501 564.68 393.892 564.68 393.892L565.833 395.291C565.833 395.291 564.605 395.901 563.871 397.623L562.718 396.223Z" fill="url(#paint15_linear_4_1068)"/>
<path d="M333.842 425.534C333.872 421.982 335.444 419.776 335.444 419.776L338.29 420.906C338.29 420.906 336.717 423.112 336.687 426.664L333.842 425.534Z" fill="url(#paint16_linear_4_1068)"/>
<path d="M320.394 463.561C321.352 461.032 323.075 460.045 323.075 460.045L324.812 461.947C324.812 461.947 323.09 462.933 322.131 465.462L320.394 463.561Z" fill="url(#paint17_linear_4_1068)"/>
<path d="M298.499 467.831C300.745 469.409 301.464 471.813 301.464 471.813L299.488 473.929C299.488 473.929 298.769 471.526 296.522 469.947L298.499 467.831Z" fill="url(#paint18_linear_4_1068)"/>
<path d="M269.101 507.401C269.416 504.674 270.824 503.15 270.824 503.15L272.92 504.369C272.92 504.369 271.513 505.876 271.198 508.621L269.101 507.401Z" fill="url(#paint19_linear_4_1068)"/>
<path d="M256.267 548.388C257.705 545.608 259.831 544.783 259.831 544.783L261.614 547.312C261.614 547.312 259.487 548.155 258.049 550.917L256.267 548.388Z" fill="url(#paint20_linear_4_1068)"/>
<path d="M439.138 0C441.773 0.0358752 443.436 1.72199 443.436 1.72199L442.582 4.77138C442.582 4.77138 440.935 3.08526 438.284 3.04939L439.138 0Z" fill="url(#paint21_linear_4_1068)"/>
<path d="M419.879 14.1707C422.604 12.7357 424.941 13.5429 424.941 13.5429L425.255 17.1484C425.255 17.1484 422.904 16.3412 420.193 17.7762L419.879 14.1707Z" fill="url(#paint22_linear_4_1068)"/>
<path d="M421.421 22.9424C424.236 24.2518 425.419 26.8528 425.419 26.8528L423.473 29.6869C423.473 29.6869 422.289 27.086 419.474 25.7765L421.421 22.9424Z" fill="url(#paint23_linear_4_1068)"/>
<path d="M387.576 63.6783C387.68 59.7858 389.463 57.4001 389.463 57.4001L392.563 58.7455C392.563 58.7455 390.78 61.1312 390.676 65.0236L387.576 63.6783Z" fill="url(#paint24_linear_4_1068)"/>
<path d="M399.182 113.007C399.481 110.747 400.665 109.527 400.665 109.527L402.387 110.585C402.387 110.585 401.204 111.805 400.904 114.065L399.182 113.007Z" fill="url(#paint25_linear_4_1068)"/>
<path d="M420.657 122.496C420.193 119.662 421.151 117.599 421.151 117.599L423.578 117.957C423.578 117.957 422.619 120.02 423.083 122.854L420.657 122.496Z" fill="url(#paint26_linear_4_1068)"/>
<path d="M272.112 3.87467C275.107 2.90604 277.413 4.17963 277.413 4.17963L277.263 7.94651C277.263 7.94651 274.957 6.67294 271.962 7.64158L272.112 3.87467Z" fill="url(#paint27_linear_4_1068)"/>
<path d="M236.784 22.5655C239.779 22.9781 241.471 25.1306 241.471 25.1306L240.198 28.4669C240.198 28.4669 238.506 26.3144 235.511 25.9019L236.784 22.5655Z" fill="url(#paint28_linear_4_1068)"/>
<path d="M232.531 49.5081C233.774 47.5887 235.391 47.1762 235.391 47.1762L236.544 49.2031C236.544 49.2031 234.927 49.6336 233.684 51.535L232.531 49.5081Z" fill="url(#paint29_linear_4_1068)"/>
<path d="M235.81 82.3518C236.32 80.3069 237.533 79.3204 237.533 79.3204L239.03 80.5401C239.03 80.5401 237.817 81.5088 237.308 83.5716L235.81 82.3518Z" fill="url(#paint30_linear_4_1068)"/>
<path d="M438.433 416.386C438.373 412.816 439.916 410.538 439.916 410.538L442.821 411.596C442.821 411.596 441.279 413.874 441.339 417.444L438.433 416.386Z" fill="url(#paint31_linear_4_1068)"/>
<path d="M431.185 391.452C430.646 388.762 431.5 386.717 431.5 386.717L433.836 386.932C433.836 386.932 432.982 388.959 433.521 391.668L431.185 391.452Z" fill="url(#paint32_linear_4_1068)"/>
<path d="M442.806 385.73C445.472 384.672 447.614 385.712 447.614 385.712L447.629 389.138C447.629 389.138 445.487 388.116 442.821 389.156L442.806 385.73Z" fill="url(#paint33_linear_4_1068)"/>
<path d="M456.464 357.12C456.839 355.272 457.887 354.339 457.887 354.339L459.265 355.344C459.265 355.344 458.216 356.277 457.842 358.124L456.464 357.12Z" fill="url(#paint34_linear_4_1068)"/>
<path d="M490.444 354.626C491.897 355.595 492.391 357.12 492.391 357.12L491.148 358.501C491.148 358.501 490.654 356.976 489.201 356.008L490.444 354.626Z" fill="url(#paint35_linear_4_1068)"/>
<path d="M387.381 307.953C389.612 309.424 390.376 311.755 390.376 311.755L388.489 313.89C388.489 313.89 387.725 311.558 385.494 310.087L387.381 307.953Z" fill="url(#paint36_linear_4_1068)"/>
<path d="M422.319 322.536C422.319 319.648 423.592 317.836 423.592 317.836L425.914 318.751C425.914 318.751 424.641 320.563 424.641 323.451L422.319 322.536Z" fill="url(#paint37_linear_4_1068)"/>
<path d="M359.945 251.144C361.952 249.135 364.093 249.153 364.093 249.153L365.082 252.095C365.082 252.095 362.94 252.095 360.933 254.086L359.945 251.144Z" fill="url(#paint38_linear_4_1068)"/>
<path d="M374.217 277.548C376.568 275.163 379.114 275.163 379.114 275.163L380.297 278.643C380.297 278.643 377.766 278.66 375.4 281.028L374.217 277.548Z" fill="url(#paint39_linear_4_1068)"/>
<path d="M375.49 290.015C377.467 291.378 378.126 293.495 378.126 293.495L376.403 295.36C376.403 295.36 375.759 293.244 373.768 291.88L375.49 290.015Z" fill="url(#paint40_linear_4_1068)"/>
<path d="M369.844 312.365C372.615 312.616 374.262 314.518 374.262 314.518L373.199 317.657C373.199 317.657 371.566 315.755 368.781 315.504L369.844 312.365Z" fill="url(#paint41_linear_4_1068)"/>
<path d="M295.594 141.51C298.184 143.214 299.053 145.923 299.053 145.923L296.867 148.38C296.867 148.38 295.998 145.671 293.407 143.967L295.594 141.51Z" fill="url(#paint42_linear_4_1068)"/>
<path d="M271.677 166.891C273.803 166.73 275.211 167.968 275.211 167.968L274.672 170.479C274.672 170.479 273.264 169.241 271.138 169.403L271.677 166.891Z" fill="url(#paint43_linear_4_1068)"/>
<path d="M244.691 146.425C245.14 142.622 247.102 140.505 247.102 140.505L250.037 142.209C250.037 142.209 248.075 144.326 247.626 148.129L244.691 146.425Z" fill="url(#paint44_linear_4_1068)"/>
<path d="M207.116 151.752C208.404 149.51 210.201 148.918 210.201 148.918L211.609 151.106C211.609 151.106 209.812 151.698 208.524 153.94L207.116 151.752Z" fill="url(#paint45_linear_4_1068)"/>
<path d="M196.094 116.971C198.76 114.765 201.41 115.052 201.41 115.052L202.354 118.819C202.354 118.819 199.703 118.532 197.037 120.738L196.094 116.971Z" fill="url(#paint46_linear_4_1068)"/>
<path d="M175.263 108.989C177.509 108.702 179.036 109.94 179.036 109.94L178.557 112.63C178.557 112.63 177.03 111.393 174.783 111.68L175.263 108.989Z" fill="url(#paint47_linear_4_1068)"/>
<path d="M298.858 396.546C300.566 394.412 302.587 394.143 302.587 394.143L303.77 396.798C303.77 396.798 301.749 397.067 300.041 399.201L298.858 396.546Z" fill="url(#paint48_linear_4_1068)"/>
<path d="M333.572 379.972C335.953 381.461 336.792 383.9 336.792 383.9L334.845 386.179C334.845 386.179 334.006 383.739 331.625 382.25L333.572 379.972Z" fill="url(#paint49_linear_4_1068)"/>
<path d="M351.229 380.869C352.083 379.183 353.371 378.663 353.371 378.663L354.464 380.187C354.464 380.187 353.176 380.707 352.322 382.394L351.229 380.869Z" fill="url(#paint50_linear_4_1068)"/>
<path d="M366.28 328.061C366.654 326.124 367.732 325.155 367.732 325.155L369.17 326.195C369.17 326.195 368.092 327.182 367.717 329.101L366.28 328.061Z" fill="url(#paint51_linear_4_1068)"/>
<path d="M0 156.865C0.359421 154.479 1.64735 153.205 1.64735 153.205L3.45943 154.371C3.45943 154.371 2.18649 155.645 1.81209 158.03L0 156.865Z" fill="url(#paint52_linear_4_1068)"/>
<path d="M6.3796 128.398C8.74578 128.792 10.0637 130.532 10.0637 130.532L9.00037 133.151C9.00037 133.151 7.6825 131.411 5.31631 131.016L6.3796 128.398Z" fill="url(#paint53_linear_4_1068)"/>
<path d="M36.0767 169.026C37.5294 166.837 39.4014 166.389 39.4014 166.389L40.7043 168.757C40.7043 168.757 38.8323 169.223 37.3796 171.394L36.0767 169.026Z" fill="url(#paint54_linear_4_1068)"/>
<path d="M67.6909 135.859C67.4662 132.702 68.7092 130.568 68.7092 130.568L71.33 131.285C71.33 131.285 70.087 133.42 70.3116 136.577L67.6909 135.859Z" fill="url(#paint55_linear_4_1068)"/>
<path d="M75.9574 160.721C77.3352 158.784 79.0574 158.443 79.0574 158.443L80.1806 160.649C80.1806 160.649 78.4583 160.99 77.0806 162.927L75.9574 160.721Z" fill="url(#paint56_linear_4_1068)"/>
<path d="M87.5488 129.366C87.1445 126.837 88.0131 125.007 88.0131 125.007L90.1696 125.33C90.1696 125.33 89.316 127.178 89.7054 129.689L87.5488 129.366Z" fill="url(#paint57_linear_4_1068)"/>
<path d="M477.85 249.709C480.052 250.301 481.175 252.077 481.175 252.077L480.007 254.445C480.007 254.445 478.883 252.669 476.682 252.077L477.85 249.709Z" fill="url(#paint58_linear_4_1068)"/>
<path d="M506.02 238.48C508.341 238.803 509.644 240.471 509.644 240.471L508.655 243.054C508.655 243.054 507.337 241.386 505.031 241.063L506.02 238.48Z" fill="url(#paint59_linear_4_1068)"/>
<path d="M484.545 183.537C485.099 181.475 486.342 180.524 486.342 180.524L487.839 181.797C487.839 181.797 486.581 182.748 486.042 184.811L484.545 183.537Z" fill="url(#paint60_linear_4_1068)"/>
<path d="M360.574 327.595L357.803 327.684L357.848 329.908L360.619 329.837L360.574 327.595Z" fill="url(#paint61_linear_4_1068)"/>
<path d="M357.803 327.935C359.331 327.289 360.574 327.863 360.574 327.863L360.619 329.837C360.619 329.837 359.376 329.28 357.848 329.908L357.803 327.935Z" fill="url(#paint62_linear_4_1068)"/>
<path d="M341.614 366.77L338.08 367.147L338.29 369.981L341.824 369.622L341.614 366.77Z" fill="url(#paint63_linear_4_1068)"/>
<path d="M338.095 367.488C339.997 366.519 341.629 367.111 341.629 367.111L341.809 369.622C341.809 369.622 340.176 369.031 338.274 369.999L338.095 367.488Z" fill="url(#paint64_linear_4_1068)"/>
<path d="M375.849 372.905L374.711 376.797L376.898 377.712L378.036 373.82L375.849 372.905Z" fill="url(#paint65_linear_4_1068)"/>
<path d="M374.966 376.905C375.011 374.501 376.089 373.012 376.089 373.012L378.021 373.82C378.021 373.82 376.928 375.309 376.898 377.712L374.966 376.905Z" fill="url(#paint66_linear_4_1068)"/>
<path d="M444.02 168.542C445.772 168.542 446.865 169.636 446.865 169.636L446.326 171.663C446.326 171.663 445.218 170.569 443.48 170.569L444.02 168.542Z" fill="url(#paint67_linear_4_1068)"/>
<path d="M451.702 209.26C453.275 206.946 455.296 206.48 455.296 206.48L456.674 209.027C456.674 209.027 454.653 209.493 453.08 211.807L451.702 209.26Z" fill="url(#paint68_linear_4_1068)"/>
<path d="M453.05 237.314C453.05 233.601 454.682 231.287 454.682 231.287L457.677 232.453C457.677 232.453 456.045 234.785 456.045 238.48L453.05 237.314Z" fill="url(#paint69_linear_4_1068)"/>
<path d="M209.812 232.292C211.968 233.225 212.912 235.162 212.912 235.162L211.489 237.368C211.489 237.368 210.546 235.431 208.389 234.498L209.812 232.292Z" fill="url(#paint70_linear_4_1068)"/>
<path d="M162.803 258.337C165.199 257.907 166.906 259.145 166.906 259.145L166.502 262.068C166.502 262.068 164.794 260.831 162.398 261.261L162.803 258.337Z" fill="url(#paint71_linear_4_1068)"/>
<path d="M157.261 289.89C159.148 291.665 159.553 293.979 159.553 293.979L157.531 295.612C157.531 295.612 157.127 293.298 155.24 291.522L157.261 289.89Z" fill="url(#paint72_linear_4_1068)"/>
<path d="M351.768 350.071C353.865 350.932 354.794 352.797 354.794 352.797L353.446 354.95C353.446 354.95 352.517 353.084 350.421 352.223L351.768 350.071Z" fill="url(#paint73_linear_4_1068)"/>
<path d="M383.113 341.478C384.79 340.635 386.213 341.173 386.213 341.173L386.363 343.38C386.363 343.38 384.94 342.842 383.263 343.685L383.113 341.478Z" fill="url(#paint74_linear_4_1068)"/>
<path d="M405.981 369.909C407.928 368.779 409.65 369.318 409.65 369.318L409.949 371.918C409.949 371.918 408.227 371.398 406.28 372.51L405.981 369.909Z" fill="url(#paint75_linear_4_1068)"/>
<path d="M263.351 156.577C265.657 155.626 267.529 156.505 267.529 156.505L267.574 159.483C267.574 159.483 265.702 158.622 263.395 159.555L263.351 156.577Z" fill="url(#paint76_linear_4_1068)"/>
<path d="M277.997 134.837C280.019 135.788 280.887 137.653 280.887 137.653L279.495 139.698C279.495 139.698 278.626 137.833 276.604 136.882L277.997 134.837Z" fill="url(#paint77_linear_4_1068)"/>
<path d="M293.317 103.859C293.991 101.419 295.489 100.307 295.489 100.307L297.241 101.85C297.241 101.85 295.743 102.962 295.069 105.401L293.317 103.859Z" fill="url(#paint78_linear_4_1068)"/>
<path d="M303.725 107.177C303.351 104.164 304.444 102.029 304.444 102.029L306.99 102.549C306.99 102.549 305.897 104.684 306.271 107.697L303.725 107.177Z" fill="url(#paint79_linear_4_1068)"/>
<defs>
<linearGradient id="paint0_linear_4_1068" x1="123.56" y1="344.654" x2="120.691" y2="345.855" gradientUnits="userSpaceOnUse">
<stop stop-color="#F8B54A"/>
<stop offset="1" stop-color="#F8A629"/>
</linearGradient>
<linearGradient id="paint1_linear_4_1068" x1="127.678" y1="316.761" x2="124.634" y2="318.035" gradientUnits="userSpaceOnUse">
<stop stop-color="#B5188D"/>
<stop offset="1" stop-color="#4E69AE"/>
</linearGradient>
<linearGradient id="paint2_linear_4_1068" x1="151.227" y1="305.821" x2="146.5" y2="307.798" gradientUnits="userSpaceOnUse">
<stop stop-color="#F44274"/>
<stop offset="1" stop-color="#E51F9A"/>
</linearGradient>
<linearGradient id="paint3_linear_4_1068" x1="167.318" y1="315.484" x2="161.911" y2="312.144" gradientUnits="userSpaceOnUse">
<stop stop-color="#6DD0E7"/>
<stop offset="1" stop-color="#01A7DB"/>
</linearGradient>
<linearGradient id="paint4_linear_4_1068" x1="175.54" y1="304.169" x2="171.148" y2="306.006" gradientUnits="userSpaceOnUse">
<stop stop-color="#F71873"/>
<stop offset="1" stop-color="#F8A629"/>
</linearGradient>
<linearGradient id="paint5_linear_4_1068" x1="203.55" y1="298.643" x2="199.998" y2="300.129" gradientUnits="userSpaceOnUse">
<stop stop-color="#F44274"/>
<stop offset="1" stop-color="#E51F9A"/>
</linearGradient>
<linearGradient id="paint6_linear_4_1068" x1="235.069" y1="330.288" x2="230.083" y2="332.374" gradientUnits="userSpaceOnUse">
<stop stop-color="#BE1E68"/>
<stop offset="1" stop-color="#B5188D"/>
</linearGradient>
<linearGradient id="paint7_linear_4_1068" x1="253.91" y1="352.605" x2="249.586" y2="354.415" gradientUnits="userSpaceOnUse">
<stop stop-color="#FBE422"/>
<stop offset="1" stop-color="#C8D92B"/>
</linearGradient>
<linearGradient id="paint8_linear_4_1068" x1="596.447" y1="273.396" x2="592.127" y2="277.894" gradientUnits="userSpaceOnUse">
<stop stop-color="#F44274"/>
<stop offset="1" stop-color="#E51F9A"/>
</linearGradient>
<linearGradient id="paint9_linear_4_1068" x1="596.523" y1="273.64" x2="592.289" y2="278.049" gradientUnits="userSpaceOnUse">
<stop stop-color="#F44274"/>
<stop offset="1" stop-color="#E51F9A"/>
</linearGradient>
<linearGradient id="paint10_linear_4_1068" x1="631.877" y1="305.225" x2="627.13" y2="310.168" gradientUnits="userSpaceOnUse">
<stop stop-color="#B4DF86"/>
<stop offset="1" stop-color="#84C743"/>
</linearGradient>
<linearGradient id="paint11_linear_4_1068" x1="614.09" y1="332.7" x2="611.497" y2="335.401" gradientUnits="userSpaceOnUse">
<stop stop-color="#F44274"/>
<stop offset="1" stop-color="#E51F9A"/>
</linearGradient>
<linearGradient id="paint12_linear_4_1068" x1="578.21" y1="337.806" x2="576.514" y2="339.572" gradientUnits="userSpaceOnUse">
<stop stop-color="#B5188D"/>
<stop offset="1" stop-color="#4E69AE"/>
</linearGradient>
<linearGradient id="paint13_linear_4_1068" x1="590.72" y1="353.795" x2="586.013" y2="358.697" gradientUnits="userSpaceOnUse">
<stop stop-color="#6DD0E7"/>
<stop offset="1" stop-color="#01A7DB"/>
</linearGradient>
<linearGradient id="paint14_linear_4_1068" x1="597.859" y1="381.265" x2="593.919" y2="385.368" gradientUnits="userSpaceOnUse">
<stop stop-color="#B4DF86"/>
<stop offset="1" stop-color="#84C743"/>
</linearGradient>
<linearGradient id="paint15_linear_4_1068" x1="565.153" y1="394.355" x2="562.903" y2="396.697" gradientUnits="userSpaceOnUse">
<stop stop-color="#BE1E68"/>
<stop offset="1" stop-color="#B5188D"/>
</linearGradient>
<linearGradient id="paint16_linear_4_1068" x1="338.612" y1="421.694" x2="333.18" y2="423.967" gradientUnits="userSpaceOnUse">
<stop stop-color="#F44274"/>
<stop offset="1" stop-color="#E51F9A"/>
</linearGradient>
<linearGradient id="paint17_linear_4_1068" x1="324.641" y1="461.529" x2="320.305" y2="463.343" gradientUnits="userSpaceOnUse">
<stop stop-color="#6DD0E7"/>
<stop offset="1" stop-color="#01A7DB"/>
</linearGradient>
<linearGradient id="paint18_linear_4_1068" x1="300.671" y1="469.868" x2="297.118" y2="471.355" gradientUnits="userSpaceOnUse">
<stop stop-color="#BE1E68"/>
<stop offset="1" stop-color="#B5188D"/>
</linearGradient>
<linearGradient id="paint19_linear_4_1068" x1="273.04" y1="504.668" x2="268.711" y2="506.479" gradientUnits="userSpaceOnUse">
<stop stop-color="#B5188D"/>
<stop offset="1" stop-color="#4E69AE"/>
</linearGradient>
<linearGradient id="paint20_linear_4_1068" x1="261.261" y1="546.438" x2="256.323" y2="548.504" gradientUnits="userSpaceOnUse">
<stop stop-color="#FBE422"/>
<stop offset="1" stop-color="#C8D92B"/>
</linearGradient>
<linearGradient id="paint21_linear_4_1068" x1="443.133" y1="1.01064" x2="438.28" y2="3.041" gradientUnits="userSpaceOnUse">
<stop stop-color="#B5188D"/>
<stop offset="1" stop-color="#4E69AE"/>
</linearGradient>
<linearGradient id="paint22_linear_4_1068" x1="425.169" y1="14.0954" x2="419.616" y2="16.4187" gradientUnits="userSpaceOnUse">
<stop stop-color="#F8B54A"/>
<stop offset="1" stop-color="#F8A629"/>
</linearGradient>
<linearGradient id="paint23_linear_4_1068" x1="424.646" y1="25.0014" x2="419.973" y2="26.9563" gradientUnits="userSpaceOnUse">
<stop stop-color="#B4DF86"/>
<stop offset="1" stop-color="#84C743"/>
</linearGradient>
<linearGradient id="paint24_linear_4_1068" x1="392.898" y1="59.5146" x2="386.89" y2="62.0281" gradientUnits="userSpaceOnUse">
<stop stop-color="#F8B54A"/>
<stop offset="1" stop-color="#F8A629"/>
</linearGradient>
<linearGradient id="paint25_linear_4_1068" x1="402.474" y1="110.778" x2="398.878" y2="112.282" gradientUnits="userSpaceOnUse">
<stop stop-color="#6DD0E7"/>
<stop offset="1" stop-color="#01A7DB"/>
</linearGradient>
<linearGradient id="paint26_linear_4_1068" x1="424.049" y1="119.06" x2="419.938" y2="120.779" gradientUnits="userSpaceOnUse">
<stop stop-color="#BE1E68"/>
<stop offset="1" stop-color="#B5188D"/>
</linearGradient>
<linearGradient id="paint27_linear_4_1068" x1="277.451" y1="4.25371" x2="271.573" y2="6.71331" gradientUnits="userSpaceOnUse">
<stop stop-color="#B4DF86"/>
<stop offset="1" stop-color="#84C743"/>
</linearGradient>
<linearGradient id="paint28_linear_4_1068" x1="240.994" y1="24.0022" x2="235.652" y2="26.2373" gradientUnits="userSpaceOnUse">
<stop stop-color="#FBE422"/>
<stop offset="1" stop-color="#C8D92B"/>
</linearGradient>
<linearGradient id="paint29_linear_4_1068" x1="236.183" y1="48.3152" x2="232.651" y2="49.7928" gradientUnits="userSpaceOnUse">
<stop stop-color="#F8B54A"/>
<stop offset="1" stop-color="#F8A629"/>
</linearGradient>
<linearGradient id="paint30_linear_4_1068" x1="239.01" y1="80.4874" x2="235.625" y2="81.9036" gradientUnits="userSpaceOnUse">
<stop stop-color="#BE1E68"/>
<stop offset="1" stop-color="#B5188D"/>
</linearGradient>
<linearGradient id="paint31_linear_4_1068" x1="443.172" y1="412.457" x2="437.735" y2="414.732" gradientUnits="userSpaceOnUse">
<stop stop-color="#6DD0E7"/>
<stop offset="1" stop-color="#01A7DB"/>
</linearGradient>
<linearGradient id="paint32_linear_4_1068" x1="434.332" y1="388.109" x2="430.467" y2="389.726" gradientUnits="userSpaceOnUse">
<stop stop-color="#F44274"/>
<stop offset="1" stop-color="#E51F9A"/>
</linearGradient>
<linearGradient id="paint33_linear_4_1068" x1="447.706" y1="385.935" x2="442.395" y2="388.158" gradientUnits="userSpaceOnUse">
<stop stop-color="#B5188D"/>
<stop offset="1" stop-color="#4E69AE"/>
</linearGradient>
<linearGradient id="paint34_linear_4_1068" x1="459.282" y1="355.379" x2="456.265" y2="356.641" gradientUnits="userSpaceOnUse">
<stop stop-color="#BE1E68"/>
<stop offset="1" stop-color="#B5188D"/>
</linearGradient>
<linearGradient id="paint35_linear_4_1068" x1="491.896" y1="355.914" x2="489.579" y2="356.883" gradientUnits="userSpaceOnUse">
<stop stop-color="#F8B54A"/>
<stop offset="1" stop-color="#F8A629"/>
</linearGradient>
<linearGradient id="paint36_linear_4_1068" x1="389.625" y1="309.91" x2="386.054" y2="311.404" gradientUnits="userSpaceOnUse">
<stop stop-color="#BE1E68"/>
<stop offset="1" stop-color="#B5188D"/>
</linearGradient>
<linearGradient id="paint37_linear_4_1068" x1="426.195" y1="319.394" x2="421.775" y2="321.243" gradientUnits="userSpaceOnUse">
<stop stop-color="#6DD0E7"/>
<stop offset="1" stop-color="#01A7DB"/>
</linearGradient>
<linearGradient id="paint38_linear_4_1068" x1="364.563" y1="250.262" x2="360.11" y2="252.125" gradientUnits="userSpaceOnUse">
<stop stop-color="#F71873"/>
<stop offset="1" stop-color="#F8A629"/>
</linearGradient>
<linearGradient id="paint39_linear_4_1068" x1="379.661" y1="276.478" x2="374.418" y2="278.672" gradientUnits="userSpaceOnUse">
<stop stop-color="#FBE422"/>
<stop offset="1" stop-color="#C8D92B"/>
</linearGradient>
<linearGradient id="paint40_linear_4_1068" x1="377.428" y1="291.793" x2="374.283" y2="293.109" gradientUnits="userSpaceOnUse">
<stop stop-color="#BE1E68"/>
<stop offset="1" stop-color="#B5188D"/>
</linearGradient>
<linearGradient id="paint41_linear_4_1068" x1="373.87" y1="313.6" x2="368.858" y2="315.697" gradientUnits="userSpaceOnUse">
<stop stop-color="#6DD0E7"/>
<stop offset="1" stop-color="#01A7DB"/>
</linearGradient>
<linearGradient id="paint42_linear_4_1068" x1="298.168" y1="143.779" x2="294.046" y2="145.504" gradientUnits="userSpaceOnUse">
<stop stop-color="#FBE422"/>
<stop offset="1" stop-color="#C8D92B"/>
</linearGradient>
<linearGradient id="paint43_linear_4_1068" x1="275.041" y1="167.56" x2="271.072" y2="169.221" gradientUnits="userSpaceOnUse">
<stop stop-color="#BE1E68"/>
<stop offset="1" stop-color="#B5188D"/>
</linearGradient>
<linearGradient id="paint44_linear_4_1068" x1="250.194" y1="142.616" x2="244.152" y2="145.144" gradientUnits="userSpaceOnUse">
<stop stop-color="#B4DF86"/>
<stop offset="1" stop-color="#84C743"/>
</linearGradient>
<linearGradient id="paint45_linear_4_1068" x1="211.247" y1="150.25" x2="207.198" y2="151.944" gradientUnits="userSpaceOnUse">
<stop stop-color="#B5188D"/>
<stop offset="1" stop-color="#4E69AE"/>
</linearGradient>
<linearGradient id="paint46_linear_4_1068" x1="201.89" y1="116.233" x2="196.153" y2="118.633" gradientUnits="userSpaceOnUse">
<stop stop-color="#6DD0E7"/>
<stop offset="1" stop-color="#01A7DB"/>
</linearGradient>
<linearGradient id="paint47_linear_4_1068" x1="178.898" y1="109.611" x2="174.668" y2="111.381" gradientUnits="userSpaceOnUse">
<stop stop-color="#F71873"/>
<stop offset="1" stop-color="#F8A629"/>
</linearGradient>
<linearGradient id="paint48_linear_4_1068" x1="303.174" y1="395.377" x2="299.079" y2="397.09" gradientUnits="userSpaceOnUse">
<stop stop-color="#FBE422"/>
<stop offset="1" stop-color="#C8D92B"/>
</linearGradient>
<linearGradient id="paint49_linear_4_1068" x1="335.997" y1="381.993" x2="332.184" y2="383.589" gradientUnits="userSpaceOnUse">
<stop stop-color="#F71873"/>
<stop offset="1" stop-color="#C6211B"/>
</linearGradient>
<linearGradient id="paint50_linear_4_1068" x1="354.244" y1="379.667" x2="351.249" y2="380.921" gradientUnits="userSpaceOnUse">
<stop stop-color="#F71873"/>
<stop offset="1" stop-color="#F8A629"/>
</linearGradient>
<linearGradient id="paint51_linear_4_1068" x1="369.204" y1="326.235" x2="366.071" y2="327.546" gradientUnits="userSpaceOnUse">
<stop stop-color="#6DD0E7"/>
<stop offset="1" stop-color="#01A7DB"/>
</linearGradient>
<linearGradient id="paint52_linear_4_1068" x1="3.52743" y1="154.53" x2="-0.305821" y2="156.134" gradientUnits="userSpaceOnUse">
<stop stop-color="#F87D5E"/>
<stop offset="1" stop-color="#EB622C"/>
</linearGradient>
<linearGradient id="paint53_linear_4_1068" x1="9.66281" y1="129.582" x2="5.45793" y2="131.342" gradientUnits="userSpaceOnUse">
<stop stop-color="#FBE422"/>
<stop offset="1" stop-color="#C8D92B"/>
</linearGradient>
<linearGradient id="paint54_linear_4_1068" x1="40.2564" y1="167.678" x2="36.215" y2="169.368" gradientUnits="userSpaceOnUse">
<stop stop-color="#6DD0E7"/>
<stop offset="1" stop-color="#01A7DB"/>
</linearGradient>
<linearGradient id="paint55_linear_4_1068" x1="71.7145" y1="132.244" x2="67.0009" y2="134.216" gradientUnits="userSpaceOnUse">
<stop stop-color="#F71873"/>
<stop offset="1" stop-color="#F8A629"/>
</linearGradient>
<linearGradient id="paint56_linear_4_1068" x1="79.7356" y1="159.572" x2="76.1168" y2="161.086" gradientUnits="userSpaceOnUse">
<stop stop-color="#F8B54A"/>
<stop offset="1" stop-color="#F8A629"/>
</linearGradient>
<linearGradient id="paint57_linear_4_1068" x1="90.5795" y1="126.313" x2="86.9092" y2="127.848" gradientUnits="userSpaceOnUse">
<stop stop-color="#F71873"/>
<stop offset="1" stop-color="#C6211B"/>
</linearGradient>
<linearGradient id="paint58_linear_4_1068" x1="480.717" y1="251" x2="476.89" y2="252.601" gradientUnits="userSpaceOnUse">
<stop stop-color="#F8B54A"/>
<stop offset="1" stop-color="#F8A629"/>
</linearGradient>
<linearGradient id="paint59_linear_4_1068" x1="509.271" y1="239.604" x2="505.137" y2="241.333" gradientUnits="userSpaceOnUse">
<stop stop-color="#F71873"/>
<stop offset="1" stop-color="#F8A629"/>
</linearGradient>
<linearGradient id="paint60_linear_4_1068" x1="487.793" y1="181.71" x2="484.37" y2="183.142" gradientUnits="userSpaceOnUse">
<stop stop-color="#BE1E68"/>
<stop offset="1" stop-color="#B5188D"/>
</linearGradient>
<linearGradient id="paint61_linear_4_1068" x1="360.687" y1="327.866" x2="357.544" y2="329.181" gradientUnits="userSpaceOnUse">
<stop stop-color="#F71873"/>
<stop offset="1" stop-color="#F8A629"/>
</linearGradient>
<linearGradient id="paint62_linear_4_1068" x1="360.647" y1="328.024" x2="357.594" y2="329.301" gradientUnits="userSpaceOnUse">
<stop stop-color="#F71873"/>
<stop offset="1" stop-color="#F8A629"/>
</linearGradient>
<linearGradient id="paint63_linear_4_1068" x1="341.814" y1="367.259" x2="337.839" y2="368.922" gradientUnits="userSpaceOnUse">
<stop stop-color="#F8B54A"/>
<stop offset="1" stop-color="#F8A629"/>
</linearGradient>
<linearGradient id="paint64_linear_4_1068" x1="341.779" y1="367.456" x2="337.904" y2="369.078" gradientUnits="userSpaceOnUse">
<stop stop-color="#F8B54A"/>
<stop offset="1" stop-color="#F8A629"/>
</linearGradient>
<linearGradient id="paint65_linear_4_1068" x1="378.201" y1="374.211" x2="374.309" y2="375.839" gradientUnits="userSpaceOnUse">
<stop stop-color="#6DD0E7"/>
<stop offset="1" stop-color="#01A7DB"/>
</linearGradient>
<linearGradient id="paint66_linear_4_1068" x1="378.245" y1="374.316" x2="374.537" y2="375.868" gradientUnits="userSpaceOnUse">
<stop stop-color="#6DD0E7"/>
<stop offset="1" stop-color="#01A7DB"/>
</linearGradient>
<linearGradient id="paint67_linear_4_1068" x1="446.678" y1="169.19" x2="443.463" y2="170.535" gradientUnits="userSpaceOnUse">
<stop stop-color="#F44274"/>
<stop offset="1" stop-color="#E51F9A"/>
</linearGradient>
<linearGradient id="paint68_linear_4_1068" x1="456.172" y1="207.852" x2="451.86" y2="209.656" gradientUnits="userSpaceOnUse">
<stop stop-color="#6DD0E7"/>
<stop offset="1" stop-color="#01A7DB"/>
</linearGradient>
<linearGradient id="paint69_linear_4_1068" x1="458.019" y1="233.276" x2="452.348" y2="235.648" gradientUnits="userSpaceOnUse">
<stop stop-color="#F8B54A"/>
<stop offset="1" stop-color="#F8A629"/>
</linearGradient>
<linearGradient id="paint70_linear_4_1068" x1="212.347" y1="233.805" x2="208.738" y2="235.314" gradientUnits="userSpaceOnUse">
<stop stop-color="#BE1E68"/>
<stop offset="1" stop-color="#B5188D"/>
</linearGradient>
<linearGradient id="paint71_linear_4_1068" x1="166.798" y1="258.913" x2="162.217" y2="260.83" gradientUnits="userSpaceOnUse">
<stop stop-color="#F71873"/>
<stop offset="1" stop-color="#F8A629"/>
</linearGradient>
<linearGradient id="paint72_linear_4_1068" x1="158.822" y1="291.888" x2="155.903" y2="293.109" gradientUnits="userSpaceOnUse">
<stop stop-color="#B4DF86"/>
<stop offset="1" stop-color="#84C743"/>
</linearGradient>
<linearGradient id="paint73_linear_4_1068" x1="354.255" y1="351.526" x2="350.736" y2="352.999" gradientUnits="userSpaceOnUse">
<stop stop-color="#B4DF86"/>
<stop offset="1" stop-color="#84C743"/>
</linearGradient>
<linearGradient id="paint74_linear_4_1068" x1="386.335" y1="341.47" x2="382.926" y2="342.897" gradientUnits="userSpaceOnUse">
<stop stop-color="#F71873"/>
<stop offset="1" stop-color="#C6211B"/>
</linearGradient>
<linearGradient id="paint75_linear_4_1068" x1="409.84" y1="369.784" x2="405.832" y2="371.46" gradientUnits="userSpaceOnUse">
<stop stop-color="#FBE422"/>
<stop offset="1" stop-color="#C8D92B"/>
</linearGradient>
<linearGradient id="paint76_linear_4_1068" x1="267.63" y1="156.729" x2="263.019" y2="158.658" gradientUnits="userSpaceOnUse">
<stop stop-color="#F44274"/>
<stop offset="1" stop-color="#E51F9A"/>
</linearGradient>
<linearGradient id="paint77_linear_4_1068" x1="280.322" y1="136.321" x2="276.947" y2="137.733" gradientUnits="userSpaceOnUse">
<stop stop-color="#B5188D"/>
<stop offset="1" stop-color="#4E69AE"/>
</linearGradient>
<linearGradient id="paint78_linear_4_1068" x1="297.194" y1="101.713" x2="293.134" y2="103.412" gradientUnits="userSpaceOnUse">
<stop stop-color="#F44274"/>
<stop offset="1" stop-color="#E51F9A"/>
</linearGradient>
<linearGradient id="paint79_linear_4_1068" x1="307.442" y1="103.604" x2="303.005" y2="105.46" gradientUnits="userSpaceOnUse">
<stop stop-color="#6DD0E7"/>
<stop offset="1" stop-color="#01A7DB"/>
</linearGradient>
</defs>
</svg>
