<svg width="18" height="24" viewBox="0 0 18 24" fill="none" xmlns="http://www.w3.org/2000/svg">
<path fill-rule="evenodd" clip-rule="evenodd" d="M13.2809 13H9.59167V18C9.59167 18.55 9.25964 19 8.85383 19C8.44802 19 8.11599 18.55 8.11599 18V13H4.4268C4.02099 13 3.68896 12.55 3.68896 12C3.68896 11.45 4.02099 11 4.4268 11H8.11599V6C8.11599 5.45 8.44802 5 8.85383 5C9.25964 5 9.59167 5.45 9.59167 6V11H13.2809C13.6867 11 14.0187 11.45 14.0187 12C14.0187 12.55 13.6867 13 13.2809 13Z" fill="#18214D"/>
<path fill-rule="evenodd" clip-rule="evenodd" d="M13.2809 13H4.4268C4.02099 13 3.68896 12.55 3.68896 12C3.68896 11.45 4.02099 11 4.4268 11H13.2809C13.6867 11 14.0187 11.45 14.0187 12C14.0187 12.55 13.6867 13 13.2809 13Z" fill="#18214D"/>
</svg>
